<svg width="24" height="24" viewBox="0 0 24 24" fill="none" xmlns="http://www.w3.org/2000/svg">
<g clip-path="url(#clip0_12_4962)">
<path d="M18.6666 20H3.99996V5.33333H12.8133L14.1466 4H3.99996C3.64634 4 3.3072 4.14048 3.05715 4.39052C2.8071 4.64057 2.66663 4.97971 2.66663 5.33333V20C2.66663 20.3536 2.8071 20.6928 3.05715 20.9428C3.3072 21.1929 3.64634 21.3333 3.99996 21.3333H18.6666C19.0202 21.3333 19.3594 21.1929 19.6094 20.9428C19.8595 20.6928 20 20.3536 20 20V10L18.6666 11.3333V20Z" fill="#FAF9FB"/>
<path d="M22.3534 3.89333L20.1067 1.64667C20.007 1.54669 19.8886 1.46736 19.7581 1.41324C19.6277 1.35911 19.4879 1.33125 19.3467 1.33125C19.2055 1.33125 19.0657 1.35911 18.9353 1.41324C18.8049 1.46736 18.6864 1.54669 18.5867 1.64667L9.44672 10.84L8.70672 14.0467C8.67519 14.2021 8.67851 14.3626 8.71642 14.5166C8.75434 14.6706 8.82592 14.8143 8.926 14.9373C9.02609 15.0604 9.1522 15.1597 9.29526 15.2282C9.43832 15.2966 9.59478 15.3326 9.75339 15.3333C9.83536 15.3424 9.91808 15.3424 10.0001 15.3333L13.2334 14.62L22.3534 5.41333C22.4534 5.31363 22.5327 5.19517 22.5868 5.06476C22.6409 4.93434 22.6688 4.79453 22.6688 4.65333C22.6688 4.51213 22.6409 4.37232 22.5868 4.24191C22.5327 4.11149 22.4534 3.99304 22.3534 3.89333ZM12.5401 13.3867L10.1001 13.9267L10.6667 11.5067L17.5467 4.58L19.4267 6.46L12.5401 13.3867ZM20.1801 5.70667L18.3001 3.82667L19.3334 2.77333L21.2267 4.66667L20.1801 5.70667Z" fill="#FAF9FB"/>
</g>
<defs>
<clipPath id="clip0_12_4962">
<rect width="24" height="24" fill="white"/>
</clipPath>
</defs>
</svg>
