<svg width="419" height="397" viewBox="0 0 419 397" fill="none" xmlns="http://www.w3.org/2000/svg">
<g opacity="0.2">
<path d="M88.5387 2.39423H127.92V54.4867H78.6071" stroke="black" stroke-width="0.465314" stroke-linecap="round" stroke-linejoin="round"/>
<path d="M73.4554 54.4867H61.4612V2.39423H83.387" stroke="black" stroke-width="0.465314" stroke-linecap="round" stroke-linejoin="round"/>
<path d="M73.774 17.513H66.4802V24.8068H73.774V17.513Z" stroke="black" stroke-width="0.465314" stroke-linecap="round" stroke-linejoin="round"/>
<path d="M83.5994 17.513H76.3056V24.8068H83.5994V17.513Z" stroke="black" stroke-width="0.465314" stroke-linecap="round" stroke-linejoin="round"/>
<path d="M93.4249 17.513H86.131V24.8068H93.4249V17.513Z" stroke="black" stroke-width="0.465314" stroke-linecap="round" stroke-linejoin="round"/>
<path d="M103.25 17.513H95.9565V24.8068H103.25V17.513Z" stroke="black" stroke-width="0.465314" stroke-linecap="round" stroke-linejoin="round"/>
<path d="M113.085 17.513H105.791V24.8068H113.085V17.513Z" stroke="black" stroke-width="0.465314" stroke-linecap="round" stroke-linejoin="round"/>
<path d="M122.91 17.513H115.616V24.8068H122.91V17.513Z" stroke="black" stroke-width="0.465314" stroke-linecap="round" stroke-linejoin="round"/>
<path d="M73.774 27.6571H66.4802V34.9509H73.774V27.6571Z" stroke="black" stroke-width="0.465314" stroke-linecap="round" stroke-linejoin="round"/>
<path d="M83.5994 27.6571H76.3056V34.9509H83.5994V27.6571Z" stroke="black" stroke-width="0.465314" stroke-linecap="round" stroke-linejoin="round"/>
<path d="M93.4249 27.6571H86.131V34.9509H93.4249V27.6571Z" stroke="black" stroke-width="0.465314" stroke-linecap="round" stroke-linejoin="round"/>
<path d="M103.25 27.6571H95.9565V34.9509H103.25V27.6571Z" stroke="black" stroke-width="0.465314" stroke-linecap="round" stroke-linejoin="round"/>
<path d="M113.085 27.6571H105.791V34.9509H113.085V27.6571Z" stroke="black" stroke-width="0.465314" stroke-linecap="round" stroke-linejoin="round"/>
<path d="M122.91 27.6571H115.616V34.9509H122.91V27.6571Z" stroke="black" stroke-width="0.465314" stroke-linecap="round" stroke-linejoin="round"/>
<path d="M73.774 37.8012H66.4802V45.095H73.774V37.8012Z" stroke="black" stroke-width="0.465314" stroke-linecap="round" stroke-linejoin="round"/>
<path d="M83.5994 37.8012H76.3056V45.095H83.5994V37.8012Z" stroke="black" stroke-width="0.465314" stroke-linecap="round" stroke-linejoin="round"/>
<path d="M93.4249 37.8012H86.131V45.095H93.4249V37.8012Z" stroke="black" stroke-width="0.465314" stroke-linecap="round" stroke-linejoin="round"/>
<path d="M103.25 37.8012H95.9565V45.095H103.25V37.8012Z" stroke="black" stroke-width="0.465314" stroke-linecap="round" stroke-linejoin="round"/>
<path d="M113.085 37.8012H105.791V45.095H113.085V37.8012Z" stroke="black" stroke-width="0.465314" stroke-linecap="round" stroke-linejoin="round"/>
<path d="M122.91 37.8012H115.616V45.095H122.91V37.8012Z" stroke="black" stroke-width="0.465314" stroke-linecap="round" stroke-linejoin="round"/>
<path d="M123.184 9.58185H66.7546V12.1134H123.184V9.58185Z" stroke="black" stroke-width="0.465314" stroke-linecap="round" stroke-linejoin="round"/>
</g>
<g opacity="0.2">
<path d="M378.079 61.931H402.926V114.032H396.473" stroke="black" stroke-width="0.465314" stroke-linecap="round" stroke-linejoin="round"/>
<path d="M392.056 114.032H336.458V61.931H372.193" stroke="black" stroke-width="0.465314" stroke-linecap="round" stroke-linejoin="round"/>
<path d="M348.771 77.0498H341.477V84.3436H348.771V77.0498Z" stroke="black" stroke-width="0.465314" stroke-linecap="round" stroke-linejoin="round"/>
<path d="M358.605 77.0498H351.311V84.3436H358.605V77.0498Z" stroke="black" stroke-width="0.465314" stroke-linecap="round" stroke-linejoin="round"/>
<path d="M368.431 77.0498H361.137V84.3436H368.431V77.0498Z" stroke="black" stroke-width="0.465314" stroke-linecap="round" stroke-linejoin="round"/>
<path d="M378.256 77.0498H370.962V84.3436H378.256V77.0498Z" stroke="black" stroke-width="0.465314" stroke-linecap="round" stroke-linejoin="round"/>
<path d="M388.082 77.0498H380.788V84.3436H388.082V77.0498Z" stroke="black" stroke-width="0.465314" stroke-linecap="round" stroke-linejoin="round"/>
<path d="M397.907 77.0498H390.613V84.3436H397.907V77.0498Z" stroke="black" stroke-width="0.465314" stroke-linecap="round" stroke-linejoin="round"/>
<path d="M348.771 87.1939H341.477V94.4877H348.771V87.1939Z" stroke="black" stroke-width="0.465314" stroke-linecap="round" stroke-linejoin="round"/>
<path d="M358.605 87.1939H351.311V94.4877H358.605V87.1939Z" stroke="black" stroke-width="0.465314" stroke-linecap="round" stroke-linejoin="round"/>
<path d="M368.431 87.1939H361.137V94.4877H368.431V87.1939Z" stroke="black" stroke-width="0.465314" stroke-linecap="round" stroke-linejoin="round"/>
<path d="M378.256 87.1939H370.962V94.4877H378.256V87.1939Z" stroke="black" stroke-width="0.465314" stroke-linecap="round" stroke-linejoin="round"/>
<path d="M388.082 87.1939H380.788V94.4877H388.082V87.1939Z" stroke="black" stroke-width="0.465314" stroke-linecap="round" stroke-linejoin="round"/>
<path d="M397.907 87.1939H390.613V94.4877H397.907V87.1939Z" stroke="black" stroke-width="0.465314" stroke-linecap="round" stroke-linejoin="round"/>
<path d="M348.771 97.338H341.477V104.632H348.771V97.338Z" stroke="black" stroke-width="0.465314" stroke-linecap="round" stroke-linejoin="round"/>
<path d="M358.605 97.338H351.311V104.632H358.605V97.338Z" stroke="black" stroke-width="0.465314" stroke-linecap="round" stroke-linejoin="round"/>
<path d="M368.431 97.338H361.137V104.632H368.431V97.338Z" stroke="black" stroke-width="0.465314" stroke-linecap="round" stroke-linejoin="round"/>
<path d="M378.256 97.338H370.962V104.632H378.256V97.338Z" stroke="black" stroke-width="0.465314" stroke-linecap="round" stroke-linejoin="round"/>
<path d="M388.082 97.338H380.788V104.632H388.082V97.338Z" stroke="black" stroke-width="0.465314" stroke-linecap="round" stroke-linejoin="round"/>
<path d="M397.907 97.338H390.613V104.632H397.907V97.338Z" stroke="black" stroke-width="0.465314" stroke-linecap="round" stroke-linejoin="round"/>
<path d="M398.19 69.1275H341.76V71.6679H398.19V69.1275Z" stroke="black" stroke-width="0.465314" stroke-linecap="round" stroke-linejoin="round"/>
</g>
<g opacity="0.2">
<path d="M28.6036 145.244V118.06C28.5989 117.613 28.6829 117.169 28.8507 116.755C29.0186 116.341 29.2669 115.964 29.5814 115.646C29.8958 115.328 30.2701 115.076 30.6827 114.904C31.0953 114.732 31.5379 114.643 31.9849 114.643H74.4733C75.3724 114.643 76.2347 115 76.8705 115.636C77.5063 116.272 77.8635 117.134 77.8635 118.033V157.131H28.6036V151.13" stroke="black" stroke-width="0.465314" stroke-linecap="round" stroke-linejoin="round"/>
<path d="M29.2144 123.902H77.2173" stroke="black" stroke-width="0.465314" stroke-linecap="round" stroke-linejoin="round"/>
<path d="M40.7128 131.904H33.5251V137.436H72.9065V131.904H48.0686" stroke="black" stroke-width="0.465314" stroke-linecap="round" stroke-linejoin="round"/>
<path d="M72.9065 143.597H33.5251V149.138H72.9065V143.597Z" stroke="black" stroke-width="0.465314" stroke-linecap="round" stroke-linejoin="round"/>
</g>
<g opacity="0.2">
<path d="M232.034 343.018H274.523C275.419 343.018 276.279 343.374 276.914 344.008C277.548 344.642 277.904 345.502 277.904 346.399V385.506H228.653V346.435C228.648 345.988 228.732 345.544 228.9 345.13C229.068 344.715 229.316 344.339 229.631 344.021C229.945 343.703 230.319 343.451 230.732 343.279C231.145 343.107 231.587 343.018 232.034 343.018V343.018Z" stroke="black" stroke-width="0.465314" stroke-linecap="round" stroke-linejoin="round"/>
<path d="M229.264 352.277H277.267" stroke="black" stroke-width="0.465314" stroke-linecap="round" stroke-linejoin="round"/>
<path d="M272.956 360.279H233.574V365.82H272.956V360.279Z" stroke="black" stroke-width="0.465314" stroke-linecap="round" stroke-linejoin="round"/>
<path d="M272.956 371.972H233.574V377.513H272.956V371.972Z" stroke="black" stroke-width="0.465314" stroke-linecap="round" stroke-linejoin="round"/>
</g>
<g opacity="0.2">
<path d="M241.576 11.7062C236.294 6.67763 229.231 3.95331 221.94 4.13259C214.649 4.31187 207.728 7.38008 202.7 12.6622C197.671 17.9444 194.947 25.0078 195.126 32.2986C195.305 39.5895 198.373 46.5105 203.656 51.5391" stroke="black" stroke-width="0.465314" stroke-linecap="round" stroke-linejoin="round"/>
<path d="M206.754 54.2123C212.21 58.2504 218.968 60.127 225.726 59.4808C232.483 58.8346 238.763 55.7112 243.355 50.7121C247.948 45.7131 250.528 39.1917 250.6 32.4037C250.672 25.6157 248.231 19.0411 243.745 13.9457" stroke="black" stroke-width="0.465314" stroke-linecap="round" stroke-linejoin="round"/>
<path d="M235.699 32.1184H223.12V53.4777" stroke="black" stroke-width="0.465314" stroke-linecap="round" stroke-linejoin="round"/>
</g>
<g opacity="0.2">
<path d="M28.5239 51.1407C26.616 51.4423 24.7924 52.1402 23.1707 53.1896C21.5491 54.239 20.1653 55.6165 19.1085 57.2334C18.0518 58.8503 17.3456 60.6707 17.0354 62.5772C16.7252 64.4837 16.8179 66.4341 17.3075 68.3026C17.7972 70.1711 18.6729 71.9162 19.8782 73.4256C21.0836 74.935 22.5918 76.175 24.3057 77.0658C26.0196 77.9567 27.9012 78.4785 29.8291 78.5977C31.757 78.7169 33.6885 78.4308 35.4991 77.7579" stroke="black" stroke-width="0.465314" stroke-linecap="round" stroke-linejoin="round"/>
<path d="M39.9957 74.9962C41.9347 73.2086 43.3224 70.904 43.9952 68.3539C44.668 65.8039 44.598 63.1147 43.7934 60.6032C42.9887 58.0917 41.483 55.8624 39.4537 54.1781C37.4243 52.4938 34.9558 51.4246 32.339 51.0965" stroke="black" stroke-width="0.465314" stroke-linecap="round" stroke-linejoin="round"/>
<path d="M30.6483 57.7619V71.845" stroke="black" stroke-width="0.465314" stroke-miterlimit="10"/>
<path d="M37.6943 64.8079H23.6023" stroke="black" stroke-width="0.465314" stroke-miterlimit="10"/>
</g>
<g opacity="0.2">
<path d="M402.705 186.369C410.341 186.369 416.531 180.178 416.531 172.542C416.531 164.906 410.341 158.716 402.705 158.716C395.068 158.716 388.878 164.906 388.878 172.542C388.878 180.178 395.068 186.369 402.705 186.369Z" stroke="black" stroke-width="0.465314" stroke-linecap="round" stroke-linejoin="round"/>
<path d="M402.705 165.496V179.588" stroke="black" stroke-width="0.465314" stroke-miterlimit="10"/>
<path d="M409.742 172.542H395.659" stroke="black" stroke-width="0.465314" stroke-miterlimit="10"/>
</g>
<path d="M377.008 357.181H59.2307L59.6024 95.5853C59.6024 93.0663 60.6031 90.6505 62.3843 88.8693C64.1655 87.0881 66.5813 86.0874 69.1003 86.0874H367.882C369.13 86.0862 370.365 86.3311 371.518 86.808C372.671 87.2849 373.718 87.9845 374.601 88.8667C375.483 89.7489 376.182 90.7964 376.659 91.9492C377.136 93.1021 377.381 94.3377 377.38 95.5853L377.008 357.181Z" fill="white" stroke="#263238" stroke-width="0.465314" stroke-linecap="round" stroke-linejoin="round"/>
<path d="M146.615 109.332H101.498V118.618H146.615V109.332Z" stroke="#263238" stroke-width="0.465314" stroke-linecap="round" stroke-linejoin="round"/>
<path d="M283.392 121.981H365.669" stroke="#263238" stroke-width="0.465314" stroke-linecap="round" stroke-linejoin="round"/>
<path d="M77.2439 121.981H278.594" stroke="#263238" stroke-width="0.465314" stroke-linecap="round" stroke-linejoin="round"/>
<path d="M367.882 86.0874H69.1003C66.5813 86.0874 64.1655 87.0881 62.3843 88.8693C60.6031 90.6505 59.6024 93.0663 59.6024 95.5853V102.817H377.38V95.5853C377.381 94.3377 377.136 93.1021 376.659 91.9492C376.182 90.7964 375.483 89.7489 374.6 88.8667C373.718 87.9845 372.671 87.2849 371.518 86.808C370.365 86.3311 369.13 86.0862 367.882 86.0874Z" fill="#263238" stroke="#263238" stroke-width="0.465314" stroke-linecap="round" stroke-linejoin="round"/>
<path d="M76.9341 95.3729C76.9341 94.8057 76.7659 94.2512 76.4508 93.7795C76.1356 93.3079 75.6877 92.9403 75.1637 92.7233C74.6396 92.5062 74.063 92.4494 73.5066 92.5601C72.9503 92.6707 72.4393 92.9439 72.0382 93.345C71.6371 93.746 71.3639 94.2571 71.2533 94.8134C71.1426 95.3697 71.1994 95.9464 71.4165 96.4704C71.6336 96.9945 72.0012 97.4424 72.4728 97.7575C72.9444 98.0727 73.4989 98.2409 74.0661 98.2409C74.8268 98.2409 75.5563 97.9387 76.0941 97.4009C76.632 96.863 76.9341 96.1335 76.9341 95.3729Z" fill="white" stroke="#263238" stroke-width="0.465314" stroke-linecap="round" stroke-linejoin="round"/>
<path d="M88.3794 95.3729C88.3794 94.8057 88.2112 94.2512 87.8961 93.7795C87.581 93.3079 87.133 92.9403 86.609 92.7233C86.0849 92.5062 85.5083 92.4494 84.9519 92.5601C84.3956 92.6707 83.8846 92.9439 83.4835 93.345C83.0824 93.746 82.8093 94.2571 82.6986 94.8134C82.5879 95.3697 82.6447 95.9464 82.8618 96.4704C83.0789 96.9945 83.4465 97.4424 83.9181 97.7575C84.3897 98.0727 84.9442 98.2409 85.5115 98.2409C86.2721 98.2409 87.0016 97.9387 87.5394 97.4009C88.0773 96.863 88.3794 96.1335 88.3794 95.3729Z" fill="white" stroke="#263238" stroke-width="0.465314" stroke-linecap="round" stroke-linejoin="round"/>
<path d="M96.9744 98.2409C98.5584 98.2409 99.8424 96.9568 99.8424 95.3729C99.8424 93.789 98.5584 92.5049 96.9744 92.5049C95.3905 92.5049 94.1065 93.789 94.1065 95.3729C94.1065 96.9568 95.3905 98.2409 96.9744 98.2409Z" fill="white" stroke="#263238" stroke-width="0.465314" stroke-linecap="round" stroke-linejoin="round"/>
<path d="M77.9432 109.881H91.5395" stroke="#263238" stroke-width="0.465314" stroke-linecap="round" stroke-linejoin="round"/>
<path d="M77.9432 113.537H91.5395" stroke="#263238" stroke-width="0.465314" stroke-linecap="round" stroke-linejoin="round"/>
<path d="M77.9432 117.184H91.5395" stroke="#263238" stroke-width="0.465314" stroke-linecap="round" stroke-linejoin="round"/>
<path d="M80.4748 142.137V130.417H78.076V129.098H84.3341V130.417H81.9265V142.137H80.4748Z" fill="#263238"/>
<path d="M86.0868 139.508L85.5822 142.163H84.2368L86.733 129.125H88.8397L91.3359 142.163H89.8842L89.3796 139.508H86.0868ZM86.2727 138.26H89.1761L87.7067 130.736L86.2727 138.26Z" fill="#263238"/>
<path d="M98.1163 132.223V132.577H96.7355V132.152C96.7355 130.975 96.2929 130.284 95.2484 130.284C94.2039 130.284 93.7613 130.975 93.7613 132.134C93.7613 135.055 98.1341 135.338 98.1341 139.003C98.1341 140.977 97.1869 142.261 95.1953 142.261C93.2036 142.261 92.2654 140.977 92.2654 139.003V138.26H93.6285V139.083C93.6285 140.251 94.1154 140.942 95.1599 140.942C96.2044 140.942 96.6824 140.251 96.6824 139.083C96.6824 136.171 92.3273 135.896 92.3273 132.223C92.3273 130.213 93.2125 128.965 95.213 128.965C97.2135 128.965 98.1163 130.249 98.1163 132.223Z" fill="#263238"/>
<path d="M101.622 136.472L100.852 137.755V142.137H99.3998V129.098H100.834V135.392L104.304 129.098H105.773L102.498 135.002L105.906 142.084H104.375L101.622 136.472Z" fill="#263238"/>
<path d="M112.571 132.223V132.577H111.19V132.152C111.19 130.975 110.748 130.284 109.703 130.284C108.659 130.284 108.216 130.975 108.216 132.134C108.216 135.055 112.589 135.338 112.589 139.003C112.589 140.977 111.642 142.261 109.65 142.261C107.659 142.261 106.72 140.977 106.72 139.003V138.26H108.083V139.083C108.083 140.251 108.57 140.942 109.615 140.942C110.659 140.942 111.137 140.251 111.137 139.083C111.137 136.171 106.782 135.896 106.782 132.223C106.782 130.213 107.712 128.965 109.668 128.965C111.624 128.965 112.571 130.249 112.571 132.223Z" fill="#263238"/>
<path d="M277.435 215.332H77.4652V268.761H277.435V215.332Z" fill="white" stroke="#263238" stroke-width="0.465314" stroke-linecap="round" stroke-linejoin="round"/>
<path d="M231.556 229.273C232.441 229.273 232.804 229.787 232.804 230.627V231.3C232.804 232.185 232.388 232.646 231.512 232.646H230.954V234.85H230.335V229.273H231.556ZM231.512 232.088C231.972 232.088 232.194 231.876 232.194 231.344V230.601C232.194 230.087 232.008 229.831 231.556 229.831H230.954V232.088H231.512Z" fill="#263238"/>
<path d="M234.495 229.273C235.38 229.273 235.743 229.716 235.743 230.548V230.999C235.78 231.241 235.731 231.489 235.605 231.699C235.479 231.909 235.284 232.068 235.053 232.15C235.557 232.3 235.752 232.708 235.752 233.309V234.195C235.735 234.424 235.772 234.654 235.858 234.867H235.23C235.146 234.651 235.112 234.417 235.132 234.186V233.301C235.132 232.672 234.831 232.477 234.318 232.477H233.875V234.859H233.256V229.282L234.495 229.273ZM234.345 231.929C234.831 231.929 235.132 231.769 235.132 231.159V230.601C235.132 230.096 234.947 229.831 234.486 229.831H233.875V231.902L234.345 231.929Z" fill="#263238"/>
<path d="M236.38 230.601C236.38 229.716 236.805 229.193 237.655 229.193C238.505 229.193 238.939 229.742 238.939 230.601V233.487C238.953 233.663 238.931 233.841 238.874 234.009C238.816 234.177 238.724 234.332 238.604 234.462C238.484 234.593 238.338 234.697 238.175 234.768C238.013 234.84 237.837 234.877 237.66 234.877C237.482 234.877 237.306 234.84 237.144 234.768C236.981 234.697 236.835 234.593 236.715 234.462C236.595 234.332 236.503 234.177 236.445 234.009C236.388 233.841 236.366 233.663 236.38 233.487V230.601ZM237 233.513C237 234.027 237.213 234.319 237.655 234.319C238.098 234.319 238.319 234.027 238.319 233.513V230.601C238.319 230.096 238.115 229.795 237.655 229.795C237.195 229.795 237 230.096 237 230.601V233.513Z" fill="#263238"/>
<path d="M241.992 230.601V231.079H241.399V230.601C241.399 230.096 241.205 229.795 240.744 229.795C240.284 229.795 240.098 230.096 240.098 230.601V233.548C240.098 234.053 240.302 234.354 240.744 234.354C241.187 234.354 241.399 234.053 241.399 233.548V232.433H240.824V231.876H241.992V233.522C241.992 234.407 241.594 234.921 240.736 234.921C239.877 234.921 239.479 234.363 239.479 233.522V230.601C239.479 229.716 239.877 229.193 240.736 229.193C241.594 229.193 241.992 229.769 241.992 230.601Z" fill="#263238"/>
<path d="M243.825 229.273C244.71 229.273 245.064 229.716 245.064 230.548V230.999C245.101 231.241 245.052 231.489 244.926 231.699C244.8 231.909 244.604 232.068 244.374 232.15C244.887 232.3 245.073 232.708 245.073 233.309V234.195C245.055 234.425 245.094 234.656 245.188 234.867H244.559C244.471 234.652 244.435 234.418 244.453 234.186V233.301C244.453 232.672 244.161 232.477 243.639 232.477H243.205V234.859H242.577V229.282L243.825 229.273ZM243.665 231.929C244.161 231.929 244.453 231.769 244.453 231.159V230.601C244.453 230.096 244.267 229.831 243.807 229.831H243.205V231.902L243.665 231.929Z" fill="#263238"/>
<path d="M247.702 231.743V232.3H246.339V234.283H248.012V234.85H245.719V229.273H248.012V229.831H246.339V231.743H247.702Z" fill="#263238"/>
<path d="M251.004 230.601V230.751H250.428V230.601C250.428 230.096 250.242 229.804 249.791 229.804C249.339 229.804 249.154 230.096 249.154 230.592C249.154 231.849 251.03 231.964 251.03 233.531C251.03 234.416 250.623 234.929 249.764 234.929C248.906 234.929 248.516 234.381 248.516 233.531V233.212H249.1V233.566C249.1 234.071 249.304 234.363 249.755 234.363C250.207 234.363 250.402 234.071 250.402 233.566C250.402 232.327 248.543 232.203 248.543 230.636C248.543 229.751 248.941 229.238 249.773 229.238C250.605 229.238 251.004 229.76 251.004 230.601Z" fill="#263238"/>
<path d="M253.969 230.601V230.751H253.376V230.601C253.376 230.096 253.181 229.804 252.738 229.804C252.296 229.804 252.101 230.096 252.101 230.592C252.101 231.849 253.969 231.964 253.969 233.531C253.969 234.416 253.571 234.929 252.712 234.929C251.853 234.929 251.464 234.381 251.464 233.531V233.212H252.048V233.566C252.048 234.071 252.252 234.363 252.694 234.363C253.137 234.363 253.349 234.071 253.349 233.566C253.349 232.327 251.49 232.203 251.49 230.636C251.49 229.751 251.889 229.238 252.721 229.238C253.553 229.238 253.969 229.76 253.969 230.601Z" fill="#263238"/>
<path d="M191.591 229.273C192.476 229.273 192.856 229.795 192.856 230.654V233.469C192.856 234.354 192.458 234.85 191.591 234.85H190.281V229.273H191.591ZM191.591 234.283C192.033 234.283 192.255 234 192.255 233.495V230.601C192.255 230.087 192.033 229.804 191.582 229.804H190.909V234.23L191.591 234.283Z" fill="#263238"/>
<path d="M195.423 231.743V232.3H194.06V234.283H195.733V234.85H193.441V229.273H195.733V229.831H194.06V231.743H195.423Z" fill="#263238"/>
<path d="M196.937 233.726L196.716 234.85H196.149L197.212 229.273H198.097L199.168 234.85H198.539L198.327 233.726H196.937ZM197.017 233.186H198.256L197.628 229.972L197.017 233.186Z" fill="#263238"/>
<path d="M200.974 229.273C201.859 229.273 202.239 229.795 202.239 230.654V233.469C202.239 234.354 201.841 234.85 200.974 234.85H199.663V229.273H200.974ZM200.974 234.283C201.425 234.283 201.637 234 201.637 233.495V230.601C201.637 230.087 201.425 229.804 200.965 229.804H200.301V234.23L200.974 234.283Z" fill="#263238"/>
<path d="M202.824 234.85V229.273H203.443V234.283H205.036V234.85H202.824Z" fill="#263238"/>
<path d="M206.169 229.273V234.85H205.55V229.273H206.169Z" fill="#263238"/>
<path d="M207.311 234.85H206.754V229.273H207.541L208.834 233.301V229.273H209.383V234.85H208.745L207.311 230.335V234.85Z" fill="#263238"/>
<path d="M212.012 231.743V232.3H210.648V234.283H212.366V234.85H210.064V229.273H212.366V229.831H210.693V231.743H212.012Z" fill="#263238"/>
<path d="M154.927 235.646H166.576" stroke="#263238" stroke-width="0.465314" stroke-linecap="round" stroke-linejoin="round"/>
<path d="M119.998 235.646H150.74" stroke="#263238" stroke-width="0.465314" stroke-linecap="round" stroke-linejoin="round"/>
<path d="M87.3703 235.646H115.342" stroke="#263238" stroke-width="0.465314" stroke-linecap="round" stroke-linejoin="round"/>
<path d="M137.701 248.889H146.597" stroke="#263238" stroke-width="0.465314" stroke-linecap="round" stroke-linejoin="round"/>
<path d="M114.873 248.889H130.248" stroke="#263238" stroke-width="0.465314" stroke-linecap="round" stroke-linejoin="round"/>
<path d="M103.702 248.889H110.217" stroke="#263238" stroke-width="0.465314" stroke-linecap="round" stroke-linejoin="round"/>
<path d="M87.3703 248.889H99.9752" stroke="#263238" stroke-width="0.465314" stroke-linecap="round" stroke-linejoin="round"/>
<path d="M270.026 246.419C270.024 247.526 269.583 248.588 268.8 249.371C268.017 250.154 266.955 250.595 265.848 250.597H221.988C220.879 250.597 219.815 250.157 219.03 249.374C218.245 248.59 217.803 247.528 217.801 246.419C217.805 245.31 218.248 244.248 219.032 243.463C219.816 242.679 220.879 242.237 221.988 242.232H265.848C266.397 242.232 266.941 242.34 267.449 242.551C267.956 242.761 268.417 243.07 268.805 243.459C269.193 243.848 269.501 244.309 269.71 244.817C269.92 245.325 270.027 245.87 270.026 246.419Z" fill="white" stroke="#263238" stroke-width="0.465314" stroke-linecap="round" stroke-linejoin="round"/>
<path d="M256.952 242.232V250.597H221.988C220.879 250.597 219.815 250.157 219.03 249.374C218.245 248.59 217.803 247.528 217.801 246.419C217.805 245.31 218.248 244.248 219.032 243.463C219.816 242.679 220.879 242.237 221.988 242.232H256.952Z" fill="#974FD0" stroke="#263238" stroke-width="0.465314" stroke-linecap="round" stroke-linejoin="round"/>
<path d="M209.498 242.232H192.184C189.876 242.232 188.006 244.103 188.006 246.41V246.419C188.006 248.726 189.876 250.597 192.184 250.597H209.498C211.805 250.597 213.676 248.726 213.676 246.419V246.41C213.676 244.103 211.805 242.232 209.498 242.232Z" fill="white" stroke="#263238" stroke-width="0.465314" stroke-linecap="round" stroke-linejoin="round"/>
<path d="M277.435 283.499H77.4652V336.928H277.435V283.499Z" fill="white" stroke="#263238" stroke-width="0.465314" stroke-linecap="round" stroke-linejoin="round"/>
<path d="M231.556 298.565C232.441 298.565 232.804 299.078 232.804 299.928V300.592C232.804 301.477 232.388 301.946 231.512 301.946H230.954V304.141H230.335V298.565H231.556ZM231.512 301.388C231.972 301.388 232.194 301.167 232.194 300.636V299.892C232.194 299.388 232.008 299.131 231.556 299.131H230.954V301.415L231.512 301.388Z" fill="#263238"/>
<path d="M234.495 298.565C235.38 298.565 235.743 299.007 235.743 299.839V300.291C235.743 300.91 235.531 301.291 235.053 301.441C235.557 301.592 235.752 302.008 235.752 302.601V303.486C235.735 303.716 235.771 303.946 235.858 304.159H235.23C235.146 303.945 235.112 303.715 235.132 303.486V302.601C235.132 301.964 234.831 301.769 234.318 301.769H233.875V304.15H233.256V298.573L234.495 298.565ZM234.345 301.22C234.831 301.22 235.132 301.061 235.132 300.459V299.919C235.132 299.423 234.947 299.158 234.486 299.158H233.875V301.22H234.345Z" fill="#263238"/>
<path d="M236.38 299.91C236.38 299.025 236.805 298.511 237.655 298.511C238.505 298.511 238.939 299.06 238.939 299.91V302.796C238.953 302.973 238.931 303.151 238.874 303.319C238.816 303.486 238.724 303.641 238.604 303.771C238.484 303.902 238.338 304.006 238.175 304.077C238.013 304.149 237.837 304.186 237.66 304.186C237.482 304.186 237.306 304.149 237.144 304.077C236.981 304.006 236.835 303.902 236.715 303.771C236.595 303.641 236.503 303.486 236.445 303.319C236.388 303.151 236.366 302.973 236.38 302.796V299.91ZM237 302.831C237 303.336 237.213 303.628 237.655 303.628C238.098 303.628 238.319 303.336 238.319 302.831V299.875C238.319 299.379 238.115 299.078 237.655 299.078C237.195 299.078 237 299.379 237 299.875V302.831Z" fill="#263238"/>
<path d="M241.992 299.91V300.388H241.399V299.875C241.399 299.379 241.205 299.078 240.744 299.078C240.284 299.078 240.098 299.379 240.098 299.875V302.831C240.098 303.327 240.302 303.628 240.744 303.628C241.187 303.628 241.399 303.327 241.399 302.831V301.716H240.824V301.158H241.992V302.796C241.992 303.637 241.594 304.194 240.736 304.194C239.877 304.194 239.479 303.637 239.479 302.796V299.91C239.479 299.069 239.877 298.511 240.736 298.511C241.594 298.511 241.992 299.069 241.992 299.91Z" fill="#263238"/>
<path d="M243.825 298.565C244.71 298.565 245.064 299.007 245.064 299.839V300.291C245.064 300.91 244.852 301.291 244.374 301.441C244.887 301.592 245.073 302.008 245.073 302.601V303.486C245.054 303.716 245.093 303.948 245.188 304.159H244.559C244.471 303.946 244.435 303.716 244.453 303.486V302.601C244.453 301.964 244.161 301.769 243.639 301.769H243.205V304.15H242.577V298.573L243.825 298.565ZM243.665 301.22C244.161 301.22 244.453 301.061 244.453 300.459V299.919C244.453 299.423 244.267 299.158 243.807 299.158H243.205V301.22H243.665Z" fill="#263238"/>
<path d="M247.702 301.034V301.592H246.339V303.575H248.012V304.141H245.719V298.565H248.012V299.131H246.339V301.034H247.702Z" fill="#263238"/>
<path d="M251.004 299.901V300.052H250.428V299.875C250.428 299.37 250.242 299.078 249.791 299.078C249.339 299.078 249.154 299.37 249.154 299.866C249.154 301.114 251.03 301.229 251.03 302.805C251.03 303.645 250.623 304.194 249.764 304.194C248.906 304.194 248.516 303.645 248.516 302.805V302.486H249.1V302.831C249.1 303.336 249.304 303.628 249.755 303.628C250.207 303.628 250.402 303.336 250.402 302.831C250.402 301.592 248.543 301.468 248.543 299.901C248.543 299.016 248.941 298.511 249.773 298.511C250.605 298.511 251.004 299.06 251.004 299.901Z" fill="#263238"/>
<path d="M253.969 299.901V300.052H253.376V299.875C253.376 299.37 253.181 299.078 252.738 299.078C252.296 299.078 252.101 299.37 252.101 299.866C252.101 301.114 253.969 301.229 253.969 302.805C253.969 303.645 253.571 304.194 252.712 304.194C251.853 304.194 251.464 303.645 251.464 302.805V302.486H252.048V302.831C252.048 303.336 252.252 303.628 252.694 303.628C253.137 303.628 253.349 303.336 253.349 302.831C253.349 301.592 251.49 301.468 251.49 299.901C251.49 299.016 251.889 298.511 252.721 298.511C253.553 298.511 253.969 299.06 253.969 299.901Z" fill="#263238"/>
<path d="M191.591 298.565C192.476 298.565 192.856 299.087 192.856 299.954V302.76C192.856 303.645 192.458 304.141 191.591 304.141H190.281V298.565H191.591ZM191.591 303.575C192.033 303.575 192.255 303.3 192.255 302.787V299.919C192.255 299.405 192.033 299.131 191.582 299.131H190.909V303.557L191.591 303.575Z" fill="#263238"/>
<path d="M195.423 301.034V301.592H194.06V303.575H195.733V304.141H193.441V298.565H195.733V299.131H194.06V301.034H195.423Z" fill="#263238"/>
<path d="M196.937 303.017L196.716 304.141H196.149L197.212 298.565H198.097L199.168 304.141H198.539L198.327 303.017H196.937ZM197.017 302.486H198.256L197.628 299.264L197.017 302.486Z" fill="#263238"/>
<path d="M200.974 298.565C201.859 298.565 202.239 299.087 202.239 299.954V302.76C202.239 303.645 201.841 304.141 200.974 304.141H199.663V298.565H200.974ZM200.974 303.575C201.425 303.575 201.637 303.3 201.637 302.787V299.919C201.637 299.405 201.425 299.131 200.965 299.131H200.301V303.557L200.974 303.575Z" fill="#263238"/>
<path d="M202.824 304.141V298.565H203.443V303.575H205.036V304.141H202.824Z" fill="#263238"/>
<path d="M206.169 298.565V304.141H205.55V298.565H206.169Z" fill="#263238"/>
<path d="M207.311 304.141H206.754V298.565H207.541L208.834 302.592V298.565H209.383V304.141H208.745L207.311 299.644V304.141Z" fill="#263238"/>
<path d="M212.012 301.034V301.592H210.648V303.575H212.366V304.141H210.064V298.565H212.366V299.131H210.693V301.034H212.012Z" fill="#263238"/>
<path d="M154.927 304.938H166.576" stroke="#263238" stroke-width="0.465314" stroke-linecap="round" stroke-linejoin="round"/>
<path d="M119.998 304.938H150.74" stroke="#263238" stroke-width="0.465314" stroke-linecap="round" stroke-linejoin="round"/>
<path d="M87.3703 304.938H115.342" stroke="#263238" stroke-width="0.465314" stroke-linecap="round" stroke-linejoin="round"/>
<path d="M137.701 318.189H146.597" stroke="#263238" stroke-width="0.465314" stroke-linecap="round" stroke-linejoin="round"/>
<path d="M114.873 318.189H130.248" stroke="#263238" stroke-width="0.465314" stroke-linecap="round" stroke-linejoin="round"/>
<path d="M103.702 318.189H110.217" stroke="#263238" stroke-width="0.465314" stroke-linecap="round" stroke-linejoin="round"/>
<path d="M87.3703 318.189H99.9752" stroke="#263238" stroke-width="0.465314" stroke-linecap="round" stroke-linejoin="round"/>
<path d="M270.026 315.71C270.027 316.259 269.92 316.803 269.71 317.311C269.501 317.818 269.193 318.279 268.805 318.667C268.417 319.055 267.956 319.363 267.448 319.573C266.941 319.782 266.397 319.89 265.848 319.888H221.988C221.438 319.89 220.894 319.782 220.386 319.573C219.878 319.363 219.416 319.056 219.027 318.668C218.639 318.28 218.33 317.819 218.12 317.311C217.909 316.804 217.801 316.26 217.801 315.71C217.803 314.601 218.245 313.539 219.03 312.756C219.815 311.972 220.879 311.532 221.988 311.532H265.848C266.397 311.532 266.94 311.64 267.447 311.85C267.954 312.06 268.414 312.368 268.802 312.756C269.19 313.144 269.498 313.605 269.708 314.111C269.918 314.618 270.026 315.162 270.026 315.71Z" fill="white" stroke="#263238" stroke-width="0.465314" stroke-linecap="round" stroke-linejoin="round"/>
<path d="M226.157 311.532V319.888H221.988C221.438 319.89 220.894 319.782 220.386 319.573C219.878 319.363 219.416 319.056 219.027 318.668C218.639 318.28 218.33 317.819 218.12 317.311C217.909 316.804 217.801 316.26 217.801 315.71C217.803 314.601 218.245 313.539 219.03 312.756C219.815 311.972 220.879 311.532 221.988 311.532H226.157Z" fill="#974FD0" stroke="#263238" stroke-width="0.465314" stroke-linecap="round" stroke-linejoin="round"/>
<path d="M209.489 319.888H192.184C191.076 319.888 190.013 319.448 189.229 318.665C188.446 317.881 188.006 316.818 188.006 315.71C188.006 315.162 188.114 314.618 188.324 314.111C188.534 313.605 188.841 313.144 189.229 312.756C189.617 312.368 190.078 312.06 190.585 311.85C191.092 311.64 191.635 311.532 192.184 311.532H209.489C210.038 311.531 210.583 311.638 211.09 311.848C211.598 312.057 212.06 312.365 212.449 312.753C212.838 313.141 213.146 313.602 213.357 314.109C213.567 314.617 213.676 315.161 213.676 315.71C213.676 316.26 213.567 316.804 213.357 317.311C213.146 317.819 212.838 318.28 212.449 318.668C212.06 319.056 211.598 319.363 211.09 319.573C210.583 319.782 210.038 319.89 209.489 319.888Z" fill="white" stroke="#263238" stroke-width="0.465314" stroke-linecap="round" stroke-linejoin="round"/>
<path d="M364.102 147.182H294.147C291.839 147.182 289.969 149.053 289.969 151.36V171.135C289.969 173.442 291.839 175.313 294.147 175.313H364.102C366.41 175.313 368.28 173.442 368.28 171.135V151.36C368.28 149.053 366.41 147.182 364.102 147.182Z" fill="#974FD0" stroke="#263238" stroke-width="0.465314" stroke-linecap="round" stroke-linejoin="round"/>
<path d="M304.981 165.771L304.477 168.426H303.131L305.628 155.361H307.734L310.231 168.4H308.779L308.274 165.744L304.981 165.771ZM305.167 164.523H308.071L306.601 156.999L305.167 164.523Z" fill="white"/>
<path d="M314.417 155.361C316.453 155.361 317.383 156.591 317.383 158.601V165.178C317.383 167.169 316.453 168.4 314.417 168.4H311.364V155.361H314.417ZM314.417 167.081C315.462 167.081 315.966 166.426 315.966 165.231V158.53C315.966 157.335 315.462 156.689 314.4 156.689H312.833V167.081H314.417Z" fill="white"/>
<path d="M321.8 155.361C323.827 155.361 324.756 156.591 324.756 158.601V165.178C324.756 167.169 323.827 168.4 321.8 168.4H318.746V155.361H321.8ZM321.8 167.081C322.835 167.081 323.34 166.426 323.34 165.231V158.53C323.34 157.335 322.835 156.689 321.773 156.689H320.215V167.081H321.8Z" fill="white"/>
<path d="M330.908 168.4V156.689H328.501V155.361H334.759V156.689H332.36V168.4H330.908Z" fill="white"/>
<path d="M336.529 165.771L336.024 168.426H334.688L337.175 155.361H339.282L341.778 168.4H340.318L339.822 165.744L336.529 165.771ZM336.715 164.523H339.618L338.149 156.999L336.715 164.523Z" fill="white"/>
<path d="M348.567 158.495V158.849H347.187V158.415C347.187 157.247 346.735 156.556 345.699 156.556C344.664 156.556 344.204 157.247 344.204 158.397C344.204 161.327 348.585 161.602 348.585 165.275C348.585 167.249 347.629 168.532 345.637 168.532C343.646 168.532 342.716 167.249 342.716 165.275V164.523H344.071V165.346C344.071 166.523 344.558 167.205 345.602 167.205C346.647 167.205 347.133 166.523 347.133 165.346C347.133 162.442 342.77 162.159 342.77 158.495C342.77 156.476 343.699 155.228 345.655 155.228C347.611 155.228 348.567 156.521 348.567 158.495Z" fill="white"/>
<path d="M352.064 162.743L351.303 164.027V168.4H349.851V155.361H351.338V161.655L354.799 155.361H356.277L352.976 161.301L356.384 168.382H354.879L352.064 162.743Z" fill="white"/>
<path d="M301.157 35.0837C301.157 35.0837 290.872 39.6157 285.516 41.0497C280.161 42.4837 274.408 44.7586 272.965 49.2818C271.522 53.8051 265.096 71.2076 264.679 74.9519C264.263 78.6962 270.876 85.335 270.876 85.335H356.49C356.49 85.335 358.083 63.6748 354.578 56.2659C351.072 48.857 340.415 42.528 337.352 41.2976C334.29 40.0672 326.27 36.1105 323.012 35.4997C319.755 34.8889 304.866 33.6408 301.157 35.0837Z" fill="white" stroke="#263238" stroke-width="0.465314" stroke-linecap="round" stroke-linejoin="round"/>
<path d="M272.779 65.0734C274.428 64.5924 276.166 64.502 277.856 64.8093C279.546 65.1166 281.142 65.8131 282.516 66.8437" fill="white"/>
<path d="M272.779 65.0734C274.428 64.5924 276.166 64.502 277.856 64.8093C279.546 65.1166 281.142 65.8131 282.516 66.8437" stroke="#263238" stroke-width="0.465314" stroke-linecap="round" stroke-linejoin="round"/>
<path d="M279.639 66.8438C281.61 66.9522 283.485 67.7333 284.95 69.0567L279.639 66.8438Z" fill="white"/>
<path d="M279.639 66.8438C281.61 66.9522 283.485 67.7333 284.95 69.0567" stroke="#263238" stroke-width="0.465314" stroke-linecap="round" stroke-linejoin="round"/>
<path d="M288.384 56.9652C289.19 58.3443 289.537 59.9436 289.376 61.5327C289.117 64.578 288.385 67.5643 287.207 70.3844" stroke="#263238" stroke-width="0.465314" stroke-linecap="round" stroke-linejoin="round"/>
<path d="M285.393 53.9645C286.205 54.4536 286.932 55.0726 287.544 55.7968" stroke="#263238" stroke-width="0.465314" stroke-linecap="round" stroke-linejoin="round"/>
<path d="M290.642 56.7085C290.642 56.7085 292.297 61.692 291.367 65.7196" stroke="#263238" stroke-width="0.465314" stroke-linecap="round" stroke-linejoin="round"/>
<path d="M335.113 59.7623C335.113 59.7623 333.059 66.9676 333.263 69.2337" stroke="#263238" stroke-width="0.465314" stroke-linecap="round" stroke-linejoin="round"/>
<path d="M302.379 52.7429L306.159 59.541L309.372 69.933L313.904 60.4882L318.25 52.9376L309.744 51.6099L302.379 52.7429Z" fill="#974FD0" stroke="#263238" stroke-width="0.465314" stroke-linecap="round" stroke-linejoin="round"/>
<path d="M306.159 59.5499L313.904 60.4882" stroke="#263238" stroke-width="0.465314" stroke-linecap="round" stroke-linejoin="round"/>
<path d="M301.981 40.6426C301.011 41.9591 300.246 43.4157 299.715 44.9623C298.891 47.4319 297.458 55.8676 297.458 55.8676C297.458 55.8676 305.477 55.4604 307.54 55.4604C309.602 55.4604 312.851 55.664 313.506 55.664C314.161 55.664 323.384 61.2229 323.384 61.2229C323.384 61.2229 325.031 51.7515 323.181 46.4051C321.331 41.0586 308.77 34.6765 301.981 40.6426Z" fill="white" stroke="#263238" stroke-width="0.465314" stroke-linecap="round" stroke-linejoin="round"/>
<path d="M306.3 52.318L309.558 59.1693L316.179 51.6984C316.179 51.6984 310.009 53.5661 306.3 52.318Z" fill="white" stroke="#263238" stroke-width="0.465314" stroke-linecap="round" stroke-linejoin="round"/>
<path d="M333.9 129.576L330.722 135.445C330.722 135.445 326.792 136.268 326.385 137.091C325.377 138.97 324.191 140.749 322.844 142.402C321.817 143.429 319.764 144.872 321.614 145.695C323.464 146.518 326.757 142.818 326.757 142.818L328.607 141.783C328.739 143.426 328.537 145.079 328.014 146.642C326.801 150.121 325.402 154.352 325.579 154.795C326.465 157.008 327.925 155.45 327.925 155.45L330.687 148.997L331.174 148.687C331.174 148.687 330.616 156.06 330.616 156.087C330.51 157.441 331.705 159.026 332.749 157.636L335.219 149.82V156.848C335.212 157.104 335.263 157.358 335.369 157.592C335.474 157.825 335.631 158.031 335.828 158.195C336.025 158.359 336.257 158.475 336.505 158.536C336.754 158.598 337.013 158.601 337.264 158.548L337.485 158.459C338.308 158.052 338.591 149.466 338.591 149.466L340.309 155.662C340.349 155.824 340.422 155.976 340.524 156.108C340.626 156.239 340.755 156.348 340.901 156.428C341.048 156.507 341.21 156.554 341.376 156.567C341.542 156.58 341.709 156.558 341.867 156.503C341.946 156.479 342.018 156.437 342.078 156.38C342.138 156.323 342.184 156.253 342.212 156.175C342.424 155.565 341.805 145.686 341.805 145.686L341.389 135.392L342.008 131.895L333.9 129.576Z" fill="white" stroke="#263238" stroke-width="0.465314" stroke-linecap="round" stroke-linejoin="round"/>
<path d="M337.795 60.6475C337.795 60.6475 334.502 67.6492 334.909 70.1189C335.316 72.5885 344.912 96.1961 344.912 96.1961L332.988 130.55L342.46 132.816C342.46 132.816 358.632 108.774 360.349 103.605C361.291 100.683 361.708 97.6171 361.579 94.5497C361.579 93.3104 357.756 65.1796 355.489 60.2403C354.172 57.3299 352.439 54.6257 350.347 52.2118" fill="white"/>
<path d="M337.795 60.6475C337.795 60.6475 334.502 67.6492 334.909 70.1189C335.316 72.5885 344.912 96.1961 344.912 96.1961L332.988 130.55L342.46 132.816C342.46 132.816 358.632 108.774 360.349 103.605C361.291 100.683 361.708 97.6171 361.579 94.5497C361.579 93.3104 357.756 65.1796 355.489 60.2403C354.172 57.3299 352.439 54.6257 350.347 52.2118" stroke="#263238" stroke-width="0.465314" stroke-linecap="round" stroke-linejoin="round"/>
<path d="M346.354 95.3286C346.354 95.3286 350.055 90.1769 352.321 86.8841" stroke="#263238" stroke-width="0.465314" stroke-linecap="round" stroke-linejoin="round"/>
<path d="M351.701 85.0341L347.178 90.7965" stroke="#263238" stroke-width="0.465314" stroke-linecap="round" stroke-linejoin="round"/>
<path d="M333.812 127.213L343.894 129.682" stroke="#263238" stroke-width="0.465314" stroke-linecap="round" stroke-linejoin="round"/>
<path d="M267.893 69.0655C266.927 69.9057 266.073 70.8666 265.352 71.9246C263.493 74.5802 264.529 80.3603 265.759 82.2104C266.99 84.0604 271.956 85.2996 271.956 85.2996H311.912L312.718 78.5457H311.257C311.257 78.5457 304.061 76.2797 298.909 74.8369C293.757 73.394 283.64 69.1186 280.595 68.4636C278.268 67.9648 275.872 67.8719 273.513 68.1892" fill="white"/>
<path d="M267.893 69.0655C266.927 69.9057 266.073 70.8666 265.352 71.9246C263.493 74.5802 264.529 80.3603 265.759 82.2104C266.99 84.0604 271.956 85.2996 271.956 85.2996H311.912L312.718 78.5457H311.257C311.257 78.5457 304.061 76.2797 298.909 74.8369C293.757 73.394 283.64 69.1186 280.595 68.4636C278.268 67.9648 275.872 67.8719 273.513 68.1892" stroke="#263238" stroke-width="0.465314" stroke-linecap="round" stroke-linejoin="round"/>
<path d="M318.64 85.2996L318.436 85.0429C318.436 85.0429 322.588 84.6623 323.154 84.4764C323.901 84.3038 324.658 84.1767 325.42 84.0958L331.422 85.2996H337.379L336.759 84.2728L331.448 80.98L326.854 78.6874C322.083 76.2974 316.356 79.245 311.275 78.5103L312.24 78.6343L311.434 85.2996H318.64Z" fill="white" stroke="#263238" stroke-width="0.465314" stroke-linecap="round" stroke-linejoin="round"/>
<path d="M326.934 80.6967L336.379 84.857" stroke="#263238" stroke-width="0.465314" stroke-linecap="round" stroke-linejoin="round"/>
<path d="M308.611 78.2448L308.363 85.096" stroke="#263238" stroke-width="0.465314" stroke-linecap="round" stroke-linejoin="round"/>
<path d="M300.75 28.914C299.099 26.6145 298.101 23.9103 297.865 21.0891C297.661 16.7694 299.715 15.9462 299.715 15.9462C299.715 15.9462 296.634 11.007 303.424 8.12129C310.213 5.23563 320.507 3.59806 326.27 6.68731C332.032 9.77657 334.086 16.973 333.882 21.9123C333.679 26.8516 330.793 32.614 330.793 32.614L326.27 38.1729C326.27 38.1729 323.384 39.1997 322.729 37.9693C322.074 36.739 318.649 33.0301 316.816 33.0301C314.984 33.0301 310.231 33.0301 307.761 31.9944C305.291 30.9588 300.75 28.914 300.75 28.914Z" fill="#263238" stroke="#263238" stroke-width="0.465314" stroke-linecap="round" stroke-linejoin="round"/>
<path d="M300.334 22.7355C300.334 22.7355 300.131 35.2873 300.131 37.9694C300.131 40.6515 300.131 43.2804 301.361 45.9891C302.591 48.6977 303.627 55.8676 309.186 56.2836C314.745 56.6997 322.765 50.9726 324.234 47.8479C325.703 44.7233 326.473 39.4034 326.473 39.4034C326.473 39.4034 331.413 36.1105 332.236 32.2069C333.059 28.3033 331.413 26.4444 330.386 28.2944C329.359 30.1444 327.916 34.8801 327.297 35.2873C326.677 35.6945 325.854 32.8177 325.854 32.8177C325.854 32.8177 322.765 34.0569 322.357 32.8177C321.95 31.5784 324.004 25.6212 324.004 25.6212C324.004 25.6212 317.215 27.4712 315.772 27.4712C314.228 27.2938 312.709 26.9495 311.24 26.4444L317.215 30.1444C314.607 31.226 311.722 31.4431 308.982 30.7641C304.866 29.5248 301.777 22.7355 301.777 22.7355H300.334Z" fill="white" stroke="#263238" stroke-width="0.465314" stroke-linecap="round" stroke-linejoin="round"/>
<path d="M306.513 35.9069V38.3766C306.513 38.3766 303.857 45.3783 304.247 46.6087C304.636 47.8391 308.363 47.2283 309.186 46.8123" fill="white"/>
<path d="M306.513 35.9069V38.3766C306.513 38.3766 303.857 45.3783 304.247 46.6087C304.636 47.8391 308.363 47.2283 309.186 46.8123" stroke="#263238" stroke-width="0.465314" stroke-linecap="round" stroke-linejoin="round"/>
<path d="M306.097 48.6711C307.31 49.3766 308.682 49.7651 310.085 49.8006C311.488 49.8362 312.878 49.5178 314.125 48.8747" fill="white"/>
<path d="M306.097 48.6711C307.31 49.3766 308.682 49.7651 310.085 49.8006C311.488 49.8362 312.878 49.5178 314.125 48.8747" stroke="#263238" stroke-width="0.465314" stroke-linecap="round" stroke-linejoin="round"/>
<path d="M312.063 39.4034C313.095 40.1361 314.287 40.6122 315.54 40.7923C316.793 40.9724 318.071 40.8513 319.268 40.439" fill="white"/>
<path d="M312.063 39.4034C313.095 40.1361 314.287 40.6122 315.54 40.7923C316.793 40.9724 318.071 40.8513 319.268 40.439" stroke="#263238" stroke-width="0.465314" stroke-linecap="round" stroke-linejoin="round"/>
<path d="M312.275 35.7033C312.275 35.7033 316.816 34.0923 319.684 37.1461L312.275 35.7033Z" fill="white"/>
<path d="M312.275 35.7033C312.275 35.7033 316.816 34.0923 319.684 37.1461" stroke="#263238" stroke-width="0.465314" stroke-linecap="round" stroke-linejoin="round"/>
<path d="M301.768 36.1105C301.768 36.1105 302.591 37.9693 306.504 38.3765L301.768 36.1105Z" fill="white"/>
<path d="M301.768 36.1105C301.768 36.1105 302.591 37.9693 306.504 38.3765" stroke="#263238" stroke-width="0.465314" stroke-linecap="round" stroke-linejoin="round"/>
<path d="M305.69 34.0923C305.69 34.0923 304.247 31.6227 302.149 32.4459L305.69 34.0923Z" fill="white"/>
<path d="M305.69 34.0923C305.69 34.0923 304.247 31.6227 302.149 32.4459" stroke="#263238" stroke-width="0.465314" stroke-linecap="round" stroke-linejoin="round"/>
<path d="M309.372 69.933L303.512 122.256L311.071 132.833L318.055 122.256L309.372 69.933Z" fill="#974FD0" stroke="#263238" stroke-width="0.465314" stroke-linecap="round" stroke-linejoin="round"/>
<path d="M82.3248 197.389V206.002C82.3248 206.002 170.47 202.399 277.435 200.611L82.3248 197.389Z" fill="#263238" stroke="#263238" stroke-width="0.465314" stroke-linecap="round" stroke-linejoin="round"/>
<path d="M277.435 147.182H77.4653V200.611H277.435V147.182Z" fill="white" stroke="#263238" stroke-width="0.465314" stroke-linecap="round" stroke-linejoin="round"/>
<path d="M231.556 160.955C232.441 160.955 232.804 161.469 232.804 162.319V162.982C232.804 163.868 232.388 164.328 231.512 164.328H230.954V166.532H230.335V160.955H231.556ZM231.512 163.77C231.972 163.77 232.194 163.558 232.194 163.027V162.283C232.194 161.779 232.008 161.522 231.556 161.522H230.954V163.77H231.512Z" fill="#263238"/>
<path d="M234.495 160.955C235.38 160.955 235.743 161.398 235.743 162.23V162.681C235.743 163.292 235.531 163.682 235.053 163.832C235.557 163.983 235.752 164.399 235.752 164.992V165.877C235.735 166.106 235.772 166.337 235.858 166.55H235.23C235.145 166.333 235.111 166.1 235.132 165.868V164.983C235.132 164.354 234.831 164.16 234.318 164.16H233.875V166.541H233.256V160.964L234.495 160.955ZM234.345 163.611C234.831 163.611 235.132 163.452 235.132 162.841V162.31C235.132 161.805 234.947 161.548 234.486 161.548H233.875V163.611H234.345Z" fill="#263238"/>
<path d="M236.38 162.301C236.38 161.416 236.805 160.893 237.655 160.893C238.505 160.893 238.939 161.451 238.939 162.301V165.187C238.953 165.363 238.931 165.541 238.874 165.709C238.816 165.877 238.724 166.031 238.604 166.162C238.484 166.293 238.338 166.397 238.175 166.468C238.013 166.54 237.837 166.577 237.66 166.577C237.482 166.577 237.306 166.54 237.144 166.468C236.981 166.397 236.835 166.293 236.715 166.162C236.595 166.031 236.503 165.877 236.445 165.709C236.388 165.541 236.366 165.363 236.38 165.187V162.301ZM237 165.213C237 165.726 237.213 166.019 237.655 166.019C238.098 166.019 238.319 165.726 238.319 165.213V162.265C238.319 161.77 238.115 161.46 237.655 161.46C237.195 161.46 237 161.77 237 162.265V165.213Z" fill="#263238"/>
<path d="M241.993 162.301V162.779H241.399V162.265C241.399 161.77 241.205 161.46 240.744 161.46C240.284 161.46 240.098 161.77 240.098 162.265V165.213C240.098 165.718 240.302 166.019 240.744 166.019C241.187 166.019 241.399 165.718 241.399 165.213V164.098H240.824V163.54H241.993V165.187C241.993 166.072 241.594 166.585 240.736 166.585C239.877 166.585 239.479 166.027 239.479 165.187V162.301C239.479 161.416 239.877 160.893 240.736 160.893C241.594 160.893 241.993 161.451 241.993 162.301Z" fill="#263238"/>
<path d="M243.825 160.955C244.71 160.955 245.064 161.398 245.064 162.23V162.681C245.064 163.292 244.852 163.682 244.374 163.832C244.887 163.983 245.073 164.399 245.073 164.992V165.877C245.055 166.107 245.094 166.338 245.188 166.55H244.56C244.471 166.334 244.434 166.1 244.453 165.868V164.983C244.453 164.354 244.161 164.16 243.639 164.16H243.205V166.541H242.577V160.964L243.825 160.955ZM243.665 163.611C244.161 163.611 244.453 163.452 244.453 162.841V162.31C244.453 161.805 244.267 161.548 243.807 161.548H243.205V163.611H243.665Z" fill="#263238"/>
<path d="M247.702 163.425V163.983H246.339V165.983H248.012V166.55H245.719V160.973H248.012V161.557H246.339V163.46L247.702 163.425Z" fill="#263238"/>
<path d="M251.004 162.292V162.442H250.428V162.257C250.428 161.761 250.242 161.46 249.791 161.46C249.339 161.46 249.154 161.761 249.154 162.257C249.154 163.505 251.03 163.62 251.03 165.195C251.03 166.036 250.623 166.585 249.764 166.585C248.906 166.585 248.516 166.036 248.516 165.195V164.877H249.1V165.222C249.1 165.726 249.304 166.019 249.755 166.019C250.207 166.019 250.402 165.726 250.402 165.222C250.402 163.983 248.543 163.859 248.543 162.292C248.543 161.407 248.941 160.893 249.773 160.893C250.605 160.893 251.004 161.451 251.004 162.292Z" fill="#263238"/>
<path d="M253.969 162.292V162.442H253.376V162.257C253.376 161.761 253.181 161.46 252.738 161.46C252.296 161.46 252.101 161.761 252.101 162.257C252.101 163.505 253.969 163.62 253.969 165.195C253.969 166.036 253.571 166.585 252.712 166.585C251.853 166.585 251.464 166.036 251.464 165.195V164.877H252.048V165.222C252.048 165.726 252.252 166.019 252.694 166.019C253.137 166.019 253.349 165.726 253.349 165.222C253.349 163.983 251.49 163.859 251.49 162.292C251.49 161.407 251.889 160.893 252.721 160.893C253.553 160.893 253.969 161.451 253.969 162.292Z" fill="#263238"/>
<path d="M191.591 160.955C192.476 160.955 192.856 161.478 192.856 162.336V165.151C192.856 166.036 192.458 166.532 191.591 166.532H190.281V160.955H191.591ZM191.591 165.965C192.033 165.965 192.255 165.691 192.255 165.178V162.31C192.255 161.796 192.033 161.522 191.582 161.522H190.909V165.948L191.591 165.965Z" fill="#263238"/>
<path d="M195.424 163.425V163.983H194.06V165.983H195.733V166.55H193.441V160.973H195.733V161.557H194.06V163.46L195.424 163.425Z" fill="#263238"/>
<path d="M196.937 165.408L196.716 166.532H196.149L197.212 160.955H198.097L199.168 166.532H198.539L198.327 165.408H196.937ZM197.017 164.877H198.256L197.628 161.655L197.017 164.877Z" fill="#263238"/>
<path d="M200.974 160.955C201.859 160.955 202.239 161.478 202.239 162.336V165.151C202.239 166.036 201.841 166.532 200.974 166.532H199.663V160.955H200.974ZM200.974 165.965C201.425 165.965 201.637 165.691 201.637 165.178V162.31C201.637 161.796 201.425 161.522 200.965 161.522H200.301V165.948L200.974 165.965Z" fill="#263238"/>
<path d="M202.824 166.532V160.955H203.443V165.983H205.036V166.55L202.824 166.532Z" fill="#263238"/>
<path d="M206.17 160.955V166.532H205.55V160.955H206.17Z" fill="#263238"/>
<path d="M207.311 166.532H206.754V160.955H207.542L208.834 164.983V160.955H209.383V166.532H208.745L207.311 162.018V166.532Z" fill="#263238"/>
<path d="M212.012 163.425V163.983H210.648V165.983H212.366V166.55H210.064V160.973H212.366V161.557H210.693V163.46L212.012 163.425Z" fill="#263238"/>
<path d="M154.927 167.329H166.576" stroke="#263238" stroke-width="0.465314" stroke-linecap="round" stroke-linejoin="round"/>
<path d="M119.998 167.329H150.74" stroke="#263238" stroke-width="0.465314" stroke-linecap="round" stroke-linejoin="round"/>
<path d="M87.3703 167.329H115.342" stroke="#263238" stroke-width="0.465314" stroke-linecap="round" stroke-linejoin="round"/>
<path d="M137.701 180.58H146.597" stroke="#263238" stroke-width="0.465314" stroke-linecap="round" stroke-linejoin="round"/>
<path d="M114.873 180.58H130.248" stroke="#263238" stroke-width="0.465314" stroke-linecap="round" stroke-linejoin="round"/>
<path d="M103.702 180.58H110.217" stroke="#263238" stroke-width="0.465314" stroke-linecap="round" stroke-linejoin="round"/>
<path d="M87.3703 180.58H99.9752" stroke="#263238" stroke-width="0.465314" stroke-linecap="round" stroke-linejoin="round"/>
<path d="M270.026 178.101C270.027 178.65 269.92 179.194 269.71 179.701C269.501 180.209 269.193 180.67 268.805 181.058C268.417 181.446 267.956 181.754 267.448 181.964C266.941 182.173 266.397 182.28 265.848 182.279H221.988C221.438 182.28 220.894 182.173 220.386 181.964C219.878 181.754 219.416 181.447 219.028 181.059C218.639 180.671 218.33 180.21 218.12 179.702C217.909 179.195 217.801 178.651 217.801 178.101C217.805 176.992 218.248 175.93 219.032 175.146C219.816 174.362 220.879 173.919 221.988 173.914H265.848C266.397 173.914 266.941 174.023 267.449 174.233C267.956 174.444 268.417 174.752 268.805 175.141C269.193 175.53 269.501 175.992 269.71 176.5C269.92 177.008 270.027 177.552 270.026 178.101Z" fill="white" stroke="#263238" stroke-width="0.465314" stroke-linecap="round" stroke-linejoin="round"/>
<path d="M209.489 182.279H192.184C191.076 182.279 190.013 181.839 189.229 181.055C188.446 180.272 188.006 179.209 188.006 178.101C188.013 176.998 188.456 175.942 189.239 175.164C190.022 174.386 191.08 173.95 192.184 173.95H209.489C210.039 173.95 210.583 174.058 211.091 174.268C211.599 174.479 212.061 174.787 212.449 175.176C212.838 175.565 213.147 176.026 213.357 176.534C213.567 177.042 213.676 177.587 213.676 178.137C213.666 179.24 213.221 180.295 212.436 181.071C211.652 181.847 210.592 182.282 209.489 182.279Z" fill="white" stroke="#263238" stroke-width="0.465314" stroke-linecap="round" stroke-linejoin="round"/>
<path d="M95.0979 209.357C95.0979 209.357 98.0544 201.665 98.6386 200.877C99.2228 200.089 100.214 198.115 101.993 198.115C103.773 198.115 106.924 198.31 108.305 197.717C109.686 197.124 111.456 197.124 111.066 198.31C110.677 199.496 108.305 199.885 108.305 199.885L118.555 200.682C118.555 200.682 115.599 203.435 114.218 204.028C112.803 204.53 111.353 204.926 109.88 205.214C108.655 206.039 107.328 206.703 105.932 207.188C104.633 207.468 103.317 207.666 101.993 207.781L99.8247 211.72L95.0979 209.357Z" fill="white" stroke="#263238" stroke-width="0.465314" stroke-linecap="round" stroke-linejoin="round"/>
<path d="M108.314 199.876L103.773 201.063" stroke="#263238" stroke-width="0.465314" stroke-linecap="round" stroke-linejoin="round"/>
<path d="M70.6405 175.224L67.2857 180.951L69.2597 185.484L74.7832 181.341L77.5449 179.367V167.532L70.6405 175.224Z" fill="white" stroke="#263238" stroke-width="0.465314" stroke-linecap="round" stroke-linejoin="round"/>
<path d="M69.8528 178.376C69.8528 178.376 71.4284 170.285 72.2162 169.303C73.004 168.32 76.164 165.948 77.1466 165.762C78.1291 165.576 79.5188 166.151 78.731 167.337C77.7463 168.465 76.6185 169.459 75.3762 170.294C75.3762 170.294 76.7571 174.242 75.7657 176.411C75.0834 177.776 73.978 178.884 72.6145 179.571" fill="white"/>
<path d="M69.8528 178.376C69.8528 178.376 71.4284 170.285 72.2162 169.303C73.004 168.32 76.164 165.948 77.1466 165.762C78.1291 165.576 79.5188 166.151 78.731 167.337C77.7463 168.465 76.6185 169.459 75.3762 170.294C75.3762 170.294 76.7571 174.242 75.7657 176.411C75.0834 177.776 73.978 178.884 72.6145 179.571" stroke="#263238" stroke-width="0.465314" stroke-linecap="round" stroke-linejoin="round"/>
<path d="M67.4893 179.367L70.8353 187.847L53.6806 200.868L49.9363 187.457L67.4893 179.367Z" fill="#974FD0" stroke="#263238" stroke-width="0.465314" stroke-linecap="round" stroke-linejoin="round"/>
<path d="M59.6733 321.623L60.3371 330.032C60.3371 330.032 55.9113 339.327 56.3539 347.515C56.7965 355.702 57.6816 379.381 57.6816 380.709C57.6816 382.036 55.4687 383.585 57.0177 389.118C57.4515 390.658 61.2223 389.56 64.9843 391.995C68.7463 394.429 73.3935 395.978 76.2703 395.978C79.1471 395.978 80.6961 395.978 80.6961 394.65C80.6961 393.322 76.4916 391.552 74.7212 389.782C71.941 386.621 69.3545 383.296 66.976 379.823C66.5334 378.938 68.525 365.882 69.8528 360.792C71.1805 355.702 74.9425 343.531 76.4916 334.901C78.0406 326.27 78.7045 319.189 78.7045 319.189L59.6733 321.623Z" fill="white" stroke="#263238" stroke-width="0.465314" stroke-linecap="round" stroke-linejoin="round"/>
<path d="M57.0177 389.118L57.4603 395.093H60.5584L61.8862 390.224C61.8862 390.224 58.1242 388.896 57.0177 389.118Z" fill="#263238" stroke="#263238" stroke-width="0.465314" stroke-linecap="round" stroke-linejoin="round"/>
<path d="M76.2703 395.978C79.1294 395.695 80.6961 395.978 80.6961 394.65C80.6961 393.322 76.4916 391.552 74.7212 389.782C72.3146 387.051 70.0485 384.2 67.9319 381.24C67.0191 381.953 65.9176 382.384 64.763 382.479C61.4436 382.7 57.6816 380.709 57.6816 380.709C57.6816 382.036 55.4687 383.585 57.0177 389.118C57.4515 390.658 61.3462 390.384 64.3824 394.03C67.2503 397.474 75.8365 396.022 76.2703 395.978Z" fill="#263238" stroke="#263238" stroke-width="0.465314" stroke-linecap="round" stroke-linejoin="round"/>
<path d="M33.7819 315.206L34.2245 327.598C34.2245 327.598 28.4709 335.343 27.3644 342.867C26.258 350.391 22.496 379.823 22.496 382.7C22.496 385.577 20.7256 394.871 21.6108 395.535C22.496 396.199 32.6755 395.535 32.6755 395.535C33.0347 394.544 33.1854 393.489 33.1181 392.437C33.1181 390.224 31.3477 382.922 31.7903 381.151C32.2329 379.381 33.7819 373.849 33.7819 373.849C33.7819 373.849 40.642 355.924 43.5188 350.391C46.3957 344.859 48.8299 336.893 50.3789 332.024C51.928 327.156 53.2558 320.295 53.2558 320.295L33.7819 315.206Z" fill="white" stroke="#263238" stroke-width="0.465314" stroke-linecap="round" stroke-linejoin="round"/>
<path d="M31.7372 381.488C28.6656 377.168 23.6555 379.806 22.673 380.381C22.5579 381.523 22.496 382.337 22.496 382.7C22.496 385.577 20.7256 394.871 21.6108 395.535C22.496 396.199 32.6755 395.535 32.6755 395.535C33.0347 394.544 33.1854 393.489 33.1181 392.437C33.1181 390.348 31.5336 383.736 31.7372 381.488Z" fill="#263238" stroke="#263238" stroke-width="0.465314" stroke-linecap="round" stroke-linejoin="round"/>
<path d="M32.6754 395.535C32.2329 394.208 29.1347 388.896 29.1347 388.896L23.3811 389.118C21.3895 391.331 21.6108 395.535 21.6108 395.535C22.4959 396.199 32.6754 395.535 32.6754 395.535Z" fill="#8C8C8C" stroke="#263238" stroke-width="0.465314" stroke-linecap="round" stroke-linejoin="round"/>
<path d="M29.1348 388.897C29.1348 388.897 27.1431 387.126 25.5941 387.79C24.7855 388.102 24.0368 388.551 23.3811 389.118L23.6024 395.757H27.5857L29.1348 388.897Z" fill="#263238" stroke="#263238" stroke-width="0.465314" stroke-linecap="round" stroke-linejoin="round"/>
<path d="M28.9135 271.168C27.7299 274.439 27.0581 277.872 26.9218 281.348C26.7005 287.101 28.2496 315.427 28.2496 315.427C28.2496 315.427 39.3142 322.951 57.9029 323.615C76.4916 324.279 85.122 319.189 85.122 319.189C85.122 319.189 84.6794 285.11 82.4665 276.922C80.2535 268.734 76.2703 265.415 76.2703 265.415C76.2703 265.415 67.4185 268.07 53.9196 267.849C46.2481 267.792 38.6056 266.901 31.1264 265.193L28.9135 271.168Z" fill="#263238" stroke="#263238" stroke-width="0.465314" stroke-linecap="round" stroke-linejoin="round"/>
<path d="M34.7468 203.037C34.7468 203.037 29.2233 213.287 28.4355 220.784C27.6477 228.282 34.9415 251.155 34.9415 251.942C34.9415 252.73 27.2582 272.452 27.2582 272.452C33.2962 275.041 39.5524 277.088 45.9531 278.568C55.8139 280.737 65.8695 279.356 67.8434 278.763L70.4104 271.08L71.393 277.586C71.393 277.586 71.393 277.781 74.553 276.993C77.7131 276.205 81.6344 272.85 81.6344 272.85C81.6344 272.85 76.5093 260.821 73.9423 257.466C71.3753 254.111 68.2241 246.428 68.2241 246.428L69.4013 236.567C69.4013 236.567 78.2531 243.861 79.0674 244.056C79.8818 244.25 92.0883 229.893 94.6465 225.715C97.2047 221.537 101.356 210.923 101.356 210.923L95.5228 207.967L93.1594 210.33L79.1559 225.52C79.1559 225.52 70.676 215.854 66.5334 214.278C62.3908 212.703 54.5039 210.33 54.5039 210.33L38.5265 206.586L39.7126 203.231C39.7126 203.231 38.8717 200.868 34.7468 203.037Z" fill="#974FD0" stroke="#263238" stroke-width="0.465314" stroke-linecap="round" stroke-linejoin="round"/>
<path d="M69.4633 236.567L60.5584 231.336L68.6666 241.134L69.4633 236.567Z" fill="#263238" stroke="#263238" stroke-width="0.465314" stroke-linecap="round" stroke-linejoin="round"/>
<path d="M50.7596 248.773C51.5886 249.748 52.4976 250.651 53.477 251.473" stroke="#263238" stroke-width="0.465314" stroke-linecap="round" stroke-linejoin="round"/>
<path d="M39.9073 229.503C39.9073 229.503 43.7136 239.311 48.9538 246.481" stroke="#263238" stroke-width="0.465314" stroke-linecap="round" stroke-linejoin="round"/>
<path d="M44.1119 244.365C46.2391 247.849 48.7285 251.098 51.5385 254.058" stroke="#263238" stroke-width="0.465314" stroke-linecap="round" stroke-linejoin="round"/>
<path d="M60.3903 172.073C61.1735 173.641 61.7678 175.296 62.1606 177.004C62.9484 180.155 65.7013 181.739 66.7015 181.536C67.7018 181.332 67.6841 183.704 67.091 184.891C66.6699 185.684 66.1395 186.414 65.5154 187.059C65.3944 189.833 65.1315 192.598 64.7276 195.344C64.1345 198.885 63.9398 201.656 62.5589 201.656H55.4775C55.4775 201.656 54.8845 204.807 54.6809 207.374C54.4773 209.941 54.4861 210.33 54.4861 210.33L38.5088 206.586L40.2791 201.063C40.2791 201.063 30.2235 196.531 35.154 188.245C40.0844 179.96 51.7067 169.524 60.3903 172.073Z" fill="white" stroke="#263238" stroke-width="0.465314" stroke-linecap="round" stroke-linejoin="round"/>
<path d="M55.4598 201.656L52.1847 201.39L54.7694 205.913L55.4598 201.656Z" fill="#263238" stroke="#263238" stroke-width="0.465314" stroke-linecap="round" stroke-linejoin="round"/>
<path d="M65.1171 191.396C64.5309 191.76 63.8624 191.969 63.1737 192.005C62.4851 192.04 61.7986 191.901 61.1781 191.6" stroke="#263238" stroke-width="0.465314" stroke-linecap="round" stroke-linejoin="round"/>
<path d="M59.0094 179.172C59.0094 179.172 59.3988 175.428 61.3728 175.632" stroke="#263238" stroke-width="0.465314" stroke-linecap="round" stroke-linejoin="round"/>
<path d="M62.1252 180.739C62.4616 181.775 62.435 182.704 62.0721 182.828C61.7092 182.952 61.1869 182.191 60.8152 181.155C60.4434 180.119 60.5053 179.19 60.8683 179.066C61.2312 178.942 61.7977 179.695 62.1252 180.739Z" fill="#263238"/>
<path d="M60.3902 166.151L60.4611 166.24C62.5501 168.957 62.2314 171.985 60.585 174.835C57.301 180.633 47.3074 186.024 47.3074 190.812C47.3074 195.601 52.3529 195.353 52.3529 195.353C52.3529 195.353 54.3711 199.646 49.3256 203.426C44.2801 207.206 33.9236 208.215 27.3644 201.39C25.5609 199.45 24.2468 197.107 23.5316 194.557C21.54 187.918 21.2567 180.535 24.1866 174.516C26.6474 169.471 29.4977 165.381 34.6228 162.841C38.6592 160.858 45.0325 160.362 49.538 160.628C51.7382 160.711 53.8993 161.235 55.8936 162.168C57.6449 163.18 59.1743 164.535 60.3902 166.151Z" fill="#263238" stroke="#263238" stroke-width="0.465314" stroke-linecap="round" stroke-linejoin="round"/>
<path d="M46.5992 199.425C47.573 199.266 48.5261 198.999 49.4407 198.628" stroke="#757575" stroke-width="0.465314" stroke-linecap="round" stroke-linejoin="round"/>
<path d="M55.212 177.296C53.8389 179.289 52.1213 181.022 50.1399 182.412C43.1825 187.28 35.5346 192.379 39.0133 197.008C39.6121 197.801 40.3828 198.448 41.2673 198.9C42.1519 199.353 43.1275 199.599 44.1208 199.62" stroke="#757575" stroke-width="0.465314" stroke-linecap="round" stroke-linejoin="round"/>
<path d="M58.2481 170.356C57.9686 171.728 57.5196 173.06 56.9115 174.322" stroke="#757575" stroke-width="0.465314" stroke-linecap="round" stroke-linejoin="round"/>
<path d="M41.66 183.996C40.5269 185.563 39.1018 187.404 37.3934 189.361C32.525 194.928 33.2154 206.276 44.1119 205.356" stroke="#757575" stroke-width="0.465314" stroke-linecap="round" stroke-linejoin="round"/>
<path d="M44.8023 179.163C44.8023 179.163 44.2889 180.146 43.2975 181.633" stroke="#757575" stroke-width="0.465314" stroke-linecap="round" stroke-linejoin="round"/>
<path d="M329.678 289.429C331.997 290.439 337.644 290.315 337.644 290.315C337.644 290.315 336.423 286.597 336.317 286.376C335.069 283.773 331.138 279.48 327.943 279.914C327.413 279.999 326.906 280.195 326.457 280.489C326.008 280.783 325.626 281.169 325.336 281.621C325.046 282.073 324.855 282.581 324.775 283.112C324.695 283.643 324.727 284.185 324.871 284.703C325.429 286.916 327.704 288.562 329.678 289.429Z" fill="#263238"/>
<path d="M403.935 270.133C400.722 269.787 396.907 274.187 395.738 276.825C395.632 277.046 394.455 280.79 394.517 280.79H394.588C393.977 281.481 393.331 282.224 392.649 283.056C391.392 284.596 389.994 286.358 388.586 288.367C387.052 290.52 385.645 292.76 384.373 295.077C382.934 297.663 381.732 300.374 380.779 303.176C380.779 303.176 380.779 303.247 380.779 303.274C380.779 302.326 380.779 299.68 380.735 299.485C380.363 296.626 377.964 291.315 374.786 290.722C374.254 290.638 373.711 290.667 373.191 290.807C372.671 290.947 372.187 291.195 371.769 291.535C371.352 291.875 371.01 292.299 370.768 292.78C370.525 293.26 370.386 293.787 370.36 294.324C370.175 296.591 371.821 298.865 373.432 300.299C375.202 301.919 380.274 303.486 380.673 303.61C379.765 306.482 379.056 309.413 378.548 312.382C378.238 314.108 377.982 315.861 377.743 317.622C377.743 316.799 377.743 316.073 377.743 315.967C377.371 313.108 374.972 307.797 371.794 307.213C371.263 307.127 370.72 307.155 370.2 307.294C369.68 307.433 369.195 307.68 368.778 308.02C368.36 308.359 368.019 308.782 367.776 309.263C367.533 309.743 367.394 310.269 367.369 310.806C367.183 313.081 368.829 315.356 370.44 316.79C372.051 318.224 376.326 319.667 377.46 320.03C377.38 320.703 377.282 321.375 377.203 322.048C376.822 325.297 376.45 328.528 375.981 331.688C375.822 332.803 375.618 333.901 375.424 334.989C375.424 334.264 375.424 333.653 375.424 333.555C375.052 330.696 372.653 325.394 369.475 324.801C368.944 324.717 368.401 324.746 367.882 324.886C367.363 325.025 366.879 325.273 366.461 325.612C366.044 325.95 365.702 326.373 365.459 326.853C365.216 327.332 365.076 327.858 365.049 328.395C364.863 330.67 366.51 332.945 368.121 334.379C369.732 335.813 373.591 337.114 374.937 337.556C374.707 338.663 374.468 339.778 374.193 340.849C373.981 341.575 373.83 342.283 373.582 343C373.335 343.717 373.131 344.425 372.901 345.125C372.414 346.461 371.927 347.842 371.423 349.126C371.077 350.011 370.723 350.896 370.378 351.781C370.555 350.675 370.856 348.497 370.856 348.311C370.82 345.776 370.134 343.292 368.864 341.097C368.876 340.801 368.858 340.505 368.811 340.212C368.745 339.679 368.567 339.167 368.289 338.707C368.012 338.248 367.64 337.853 367.199 337.547C366.758 337.241 366.257 337.032 365.73 336.933C365.202 336.834 364.66 336.847 364.138 336.972C361.022 337.804 359.039 343.283 358.897 346.16C358.897 346.328 358.995 348.178 359.083 349.347C358.924 348.674 358.782 348.01 358.614 347.311C358.287 345.93 357.915 344.567 357.525 343.098L356.879 340.955C356.684 340.238 356.384 339.513 356.127 338.778C355.507 337.087 354.808 335.405 354.056 333.732C355.259 333.44 359.535 332.352 361.252 331.033C362.969 329.714 364.793 327.58 364.793 325.297C364.807 324.761 364.708 324.228 364.503 323.733C364.298 323.237 363.991 322.791 363.602 322.422C363.213 322.053 362.75 321.77 362.245 321.591C361.74 321.412 361.202 321.342 360.668 321.384C357.455 321.729 354.666 326.846 354.082 329.67C354.082 329.847 353.861 331.918 353.781 333.06C353.321 332.059 352.896 331.05 352.365 330.05C350.931 327.164 349.391 324.279 347.868 321.402L346.478 318.746C346.912 318.64 352.02 317.463 353.94 315.985C355.649 314.675 357.481 312.524 357.481 310.249C357.497 309.712 357.399 309.179 357.194 308.683C356.989 308.187 356.682 307.74 356.293 307.371C355.904 307.001 355.441 306.718 354.935 306.54C354.429 306.362 353.891 306.293 353.356 306.336C350.143 306.682 347.364 311.798 346.779 314.622C346.779 314.834 346.461 317.817 346.434 318.578C345.425 316.631 344.434 314.684 343.531 312.727C342.307 310.083 341.254 307.363 340.38 304.584C340.583 304.539 345.921 303.327 347.886 301.813C349.603 300.503 351.427 298.361 351.427 296.077C351.441 295.541 351.342 295.008 351.137 294.513C350.931 294.018 350.624 293.571 350.235 293.202C349.847 292.833 349.384 292.55 348.879 292.372C348.373 292.193 347.836 292.122 347.302 292.165C344.088 292.51 341.309 297.626 340.725 300.45C340.681 300.671 340.388 303.884 340.38 304.469C340.326 304.309 340.256 304.15 340.211 303.991C339.415 301.176 338.868 298.297 338.574 295.387C338.397 293.785 338.317 292.244 338.273 290.74C339.282 290.616 343.929 289.996 345.85 288.836C347.771 287.677 349.736 285.783 349.966 283.525C350.04 282.994 350 282.453 349.851 281.938C349.701 281.423 349.445 280.945 349.098 280.536C348.752 280.127 348.323 279.795 347.839 279.563C347.356 279.331 346.829 279.203 346.293 279.188C343.062 279.188 339.733 283.959 338.839 286.703C338.795 286.845 338.468 288.42 338.255 289.571C338.255 288.89 338.255 288.19 338.255 287.535C338.255 285.092 338.415 282.861 338.565 280.879C338.662 279.755 338.769 278.737 338.884 277.789C339.822 277.152 343.557 274.514 344.699 272.629C345.841 270.743 346.744 268.132 345.903 266.017C345.724 265.511 345.44 265.049 345.07 264.66C344.701 264.272 344.253 263.965 343.757 263.761C343.262 263.556 342.728 263.458 342.192 263.473C341.656 263.488 341.129 263.616 340.645 263.848C337.777 265.335 337.016 271.106 337.494 273.957C337.538 274.205 338.618 277.975 338.671 277.94H338.724C338.6 278.825 338.476 279.825 338.361 280.896C338.158 282.879 337.954 285.11 337.901 287.562C337.812 290.204 337.874 292.849 338.087 295.484C338.318 298.434 338.809 301.358 339.556 304.221C339.556 304.221 339.556 304.292 339.556 304.327C339.043 303.53 337.547 301.344 337.414 301.185C335.529 299.007 330.598 295.874 327.677 297.166C327.19 297.389 326.754 297.712 326.4 298.114C326.045 298.516 325.779 298.989 325.619 299.5C325.459 300.012 325.408 300.552 325.47 301.084C325.531 301.617 325.705 302.131 325.978 302.592C327.075 304.593 329.704 305.584 331.838 305.894C334.245 306.239 339.3 304.77 339.707 304.654C340.536 307.55 341.559 310.386 342.77 313.143C343.469 314.754 344.221 316.356 344.991 317.95C344.531 317.277 344.106 316.675 344.044 316.595C342.159 314.418 337.228 311.284 334.254 312.577C333.767 312.801 333.333 313.124 332.979 313.527C332.625 313.929 332.36 314.402 332.201 314.913C332.042 315.425 331.991 315.965 332.054 316.497C332.116 317.029 332.29 317.542 332.564 318.003C333.661 320.003 336.29 320.995 338.423 321.305C340.557 321.614 344.921 320.419 346.071 320.127C346.372 320.738 346.664 321.349 346.956 321.96C348.417 324.872 349.895 327.775 351.25 330.67C351.736 331.688 352.135 332.715 352.604 333.732C352.197 333.131 351.843 332.635 351.781 332.564C349.895 330.378 344.965 327.253 341.999 328.536C341.512 328.76 341.077 329.083 340.722 329.485C340.367 329.887 340.101 330.359 339.941 330.871C339.781 331.383 339.73 331.922 339.792 332.455C339.854 332.988 340.027 333.501 340.3 333.963C341.398 335.963 344.026 336.954 346.16 337.264C348.293 337.574 352.241 336.521 353.595 336.149C354.02 337.202 354.48 338.265 354.79 339.309C355.02 340.026 355.295 340.708 355.481 341.442C355.667 342.177 355.879 342.876 356.083 343.584C356.41 344.965 356.764 346.39 357.047 347.745C357.26 348.683 357.437 349.586 357.623 350.489C357.154 349.471 356.207 347.488 356.109 347.338C354.569 344.894 350.17 341.079 347.045 341.876C346.529 342.022 346.049 342.275 345.637 342.619C345.226 342.963 344.891 343.39 344.655 343.872C344.42 344.354 344.289 344.88 344.27 345.416C344.252 345.953 344.347 346.487 344.549 346.984C345.328 349.126 347.78 350.524 349.86 351.135C352.135 351.825 357.154 351.188 357.826 351.135C358.127 352.64 358.402 354.1 358.641 355.481C359.012 357.561 359.313 359.491 359.57 361.244H356.384V396.128H370.281V361.164H368.44C368.988 359.907 369.555 358.57 370.148 357.136C370.741 355.702 371.343 354.153 371.918 352.56C372.52 352.684 377.495 353.693 379.814 353.171C381.912 352.693 384.461 351.507 385.4 349.427C385.643 348.944 385.782 348.415 385.806 347.875C385.83 347.335 385.739 346.796 385.539 346.294C385.339 345.792 385.034 345.338 384.645 344.963C384.257 344.587 383.793 344.298 383.284 344.116C380.23 343.089 375.556 346.559 373.839 348.878C373.742 349.019 372.812 350.648 372.237 351.648C372.485 351.002 372.724 350.365 372.972 349.692C373.459 348.356 373.91 347.037 374.397 345.576L375.034 343.434C375.264 342.726 375.415 341.947 375.61 341.194C376.026 339.424 376.362 337.654 376.663 335.883C377.831 336.308 381.974 337.76 384.151 337.601C386.329 337.441 389.002 336.662 390.241 334.75C390.551 334.311 390.764 333.812 390.867 333.285C390.969 332.758 390.96 332.216 390.839 331.693C390.718 331.17 390.488 330.678 390.163 330.25C389.839 329.822 389.429 329.468 388.958 329.209C386.09 327.731 380.938 330.457 378.902 332.493C378.77 332.626 377.468 334.264 376.769 335.149C376.937 334.06 377.114 332.971 377.256 331.865C377.654 328.66 377.955 325.412 378.274 322.128C378.371 321.136 378.477 320.145 378.584 319.154C378.991 319.313 383.895 321.145 386.329 320.968C388.471 320.818 391.171 320.03 392.41 318.118C392.719 317.679 392.932 317.18 393.035 316.653C393.138 316.126 393.129 315.583 393.008 315.06C392.886 314.537 392.656 314.046 392.332 313.618C392.008 313.19 391.597 312.835 391.127 312.577C388.259 311.099 383.116 313.825 381.071 315.861C380.921 316.02 379.044 318.357 378.601 318.977C378.832 316.79 379.079 314.622 379.416 312.488C379.848 309.609 380.469 306.762 381.275 303.964C381.469 304.035 386.586 305.965 389.064 305.796C391.215 305.646 393.906 304.849 395.154 302.946C395.461 302.506 395.671 302.007 395.773 301.481C395.874 300.954 395.864 300.413 395.743 299.89C395.622 299.368 395.393 298.877 395.07 298.449C394.748 298.021 394.339 297.665 393.871 297.405C390.994 295.918 385.851 298.653 383.806 300.689C383.647 300.848 381.638 303.344 381.301 303.849C381.354 303.681 381.381 303.513 381.434 303.353C382.316 300.566 383.447 297.864 384.815 295.28C385.55 293.847 386.329 292.51 387.117 291.226C388.002 291.687 392.251 293.731 394.499 293.829C396.747 293.926 399.438 293.448 400.908 291.678C401.263 291.276 401.53 290.803 401.69 290.291C401.85 289.779 401.901 289.239 401.838 288.706C401.776 288.173 401.601 287.659 401.327 287.198C401.052 286.737 400.683 286.339 400.244 286.03C397.588 284.26 392.136 286.393 389.887 288.19C389.763 288.288 388.622 289.421 387.807 290.253C388.179 289.677 388.542 289.084 388.905 288.544C390.25 286.508 391.613 284.729 392.835 283.162C393.534 282.277 394.189 281.489 394.8 280.764C395.942 280.764 400.509 280.604 402.51 279.666C404.51 278.728 406.688 277.011 407.157 274.806C407.281 274.286 407.293 273.745 407.195 273.219C407.096 272.693 406.888 272.194 406.585 271.754C406.281 271.313 405.888 270.941 405.432 270.662C404.975 270.383 404.466 270.202 403.935 270.133ZM368.378 356.402C367.634 358.128 366.908 359.712 366.227 361.173H361.376C361.075 359.323 360.712 357.278 360.269 355.056C359.968 353.534 359.614 351.914 359.243 350.25C360.757 349.643 362.235 348.949 363.668 348.17C365.324 349.94 369.555 352.056 370.104 352.321C369.52 353.737 368.944 355.109 368.378 356.402Z" fill="#263238"/>
<path d="M387.01 290.678C387.064 290.678 388.046 286.907 388.082 286.659C388.48 283.8 387.568 278.046 384.656 276.648C384.167 276.427 383.637 276.313 383.101 276.311C382.565 276.309 382.034 276.421 381.544 276.638C381.054 276.855 380.615 277.173 380.256 277.571C379.896 277.97 379.625 278.439 379.46 278.949C378.681 281.091 379.664 283.72 380.841 285.526C382.213 287.65 387.01 290.669 387.01 290.678Z" fill="#263238"/>
<path d="M405.935 395.88H417.159" stroke="#263238" stroke-width="0.465314" stroke-linecap="round" stroke-linejoin="round"/>
<path d="M396.349 395.88H400.775" stroke="#263238" stroke-width="0.465314" stroke-linecap="round" stroke-linejoin="round"/>
<path d="M5.55368 395.88H393.154" stroke="#263238" stroke-width="0.465314" stroke-linecap="round" stroke-linejoin="round"/>
</svg>
